<svg xmlns="http://www.w3.org/2000/svg" version="1.1" xmlns:xlink="http://www.w3.org/1999/xlink" xmlns:svgjs="http://svgjs.dev/svgjs" width="100%" height="100%" viewBox="0 0 1000 600"><rect width="1000" height="600" x="0" y="0" fill="#ff5d52"/><g><circle r="166.66666666666666" cx="339.61229960123694" cy="331.3742032942582" fill="#292826" transform="matrix(0.8772833425121604,0,0,0.8772833425121607,-3.2792778293979765,9.290926884456297)"/><path d="M196.4937070422573 405.53395402473654L171.05426357394077 404.0852385652653L146.62892092725417 405.53395402473654Q146.2232805986022 405.3311338604106 146.2232805986022 402.20190846795253Q146.2232805986022 399.07268307549447 147.67199605807352 397.5949933068337L147.67199605807352 397.5949933068337Q155.40813661165043 397.5949933068337 158.5373620041085 392.8142322905783L158.5373620041085 392.8142322905783Q161.02915259439916 389.48218673379426 164.9986329533506 379.4570757542527L164.9986329533506 379.4570757542527L212.34265416887365 258.8660009078593Q214.42880443051234 256.37421031756855 218.19546462513784 256.37421031756855L218.19546462513784 256.37421031756855Q218.8328994273052 256.37421031756855 220.4844350511025 256.77985064622055L220.4844350511025 256.77985064622055L269.71178636393824 379.4570757542527Q273.47844655856375 389.0475720959529 278.1722846472509 393.335769855988Q282.8661227359379 397.5949933068337 291.84815858466015 397.5949933068337L291.84815858466015 397.5949933068337Q293.2968740441315 399.4783234041464 293.2968740441315 402.2888313955208Q293.2968740441315 405.1283136960846 292.89123371547953 405.53395402473654L292.89123371547953 405.53395402473654L264.2935905455155 404.0852385652653L233.84159158742818 405.53395402473654Q233.43595125877619 405.3311338604106 233.43595125877619 402.20190846795253Q233.43595125877619 399.07268307549447 234.88466671824753 397.5949933068337L234.88466671824753 397.5949933068337Q250.73361384486387 397.5949933068337 250.73361384486387 387.8016768008075L250.73361384486387 387.8016768008075Q250.73361384486387 385.0780917370014 248.85028374755115 379.4570757542527L248.85028374755115 379.4570757542527L240.7374771745117 357.55249800704615L187.94628583137646 357.55249800704615L179.8045049491476 379.4570757542527Q177.5155345231829 385.3098862105168 177.5155345231829 388.8447519316269L177.5155345231829 388.8447519316269Q177.5155345231829 397.5949933068337 195.45063191143794 397.5949933068337L195.45063191143794 397.5949933068337Q196.92832168009872 399.4783234041464 196.92832168009872 402.2888313955208Q196.92832168009872 405.1283136960846 196.4937070422573 405.53395402473654L196.4937070422573 405.53395402473654ZM236.33338217771887 345.87585140370726L214.86341906835378 281.00237312858116L192.32140651897987 345.87585140370726L236.33338217771887 345.87585140370726ZM365.47187823499314 258.8660009078593L389.8972208816797 260.749331005172L418.66870990678035 258.8660009078593Q419.1033245446217 259.7062558743526 419.1033245446217 262.516763865727Q419.1033245446217 265.3562461662908 417.625634775961 266.80496162576213L417.625634775961 266.80496162576213Q410.5269290245514 266.80496162576213 406.151808336948 271.1800823133656Q401.77668764934464 275.55520300096896 398.0100274547192 284.9428791783432L398.0100274547192 284.9428791783432L350.02857143702875 405.53395402473654Q349.2172907797248 406.3742089912299 345.45063058509936 406.3742089912299Q341.68397039047386 406.3742089912299 341.075509897496 405.53395402473654L341.075509897496 405.53395402473654L290.5732889803254 284.9428791783432Q285.995348128396 273.90366737717164 283.2717630645899 271.1800823133656L283.2717630645899 271.1800823133656Q278.6938222126605 266.80496162576213 268.9005057066343 266.80496162576213L268.9005057066343 266.80496162576213Q267.42281593797355 265.7618864949428 267.42281593797355 262.516763865727Q267.42281593797355 259.3006155457007 267.857430575815 258.8660009078593L267.857430575815 258.8660009078593L298.7150698625543 260.749331005172L328.76142849198965 258.8660009078593Q329.1670688206416 259.7062558743526 329.1670688206416 262.516763865727Q329.1670688206416 265.3562461662908 327.71835336117033 266.80496162576213L327.71835336117033 266.80496162576213Q309.78325597291524 266.80496162576213 309.78325597291524 277.2357129339557L309.78325597291524 277.2357129339557Q309.78325597291524 280.5677584907397 311.43479159671256 284.9428791783432L311.43479159671256 284.9428791783432L347.5367808467381 379.0514354256007L383.0013352945962 284.9428791783432Q384.45005075406755 280.5677584907397 384.45005075406755 277.8731477361231L384.45005075406755 277.8731477361231Q384.45005075406755 266.80496162576213 366.5149533658125 266.80496162576213L366.5149533658125 266.80496162576213Q365.06623790634114 265.7618864949428 365.06623790634114 262.516763865727Q365.06623790634114 259.3006155457007 365.47187823499314 258.8660009078593L365.47187823499314 258.8660009078593ZM502.11472037232886 405.53395402473654L479.16706749430307 404.2880587295912L454.3360845189645 405.53395402473654Q453.72762402598653 404.89651922256917 453.72762402598653 401.76729383011116Q453.72762402598653 398.63806843765303 454.7706991568058 397.5949933068337L454.7706991568058 397.5949933068337Q462.2750452368673 397.5949933068337 465.52016786608317 394.9873054797853Q468.73631618610943 392.3796176527369 468.73631618610943 386.75860166998814L468.73631618610943 386.75860166998814L469.5765711526028 269.9341870182202L452.68454889516715 269.9341870182202Q440.1676473253349 269.9341870182202 435.47380923664775 275.14956267231696Q430.7799711479606 280.3649383264138 428.6938208863219 292.2444050940787L428.6938208863219 292.2444050940787Q427.85356591982855 293.08466006057205 424.6084432906128 293.08466006057205Q421.39229497058636 293.08466006057205 420.75486016841904 292.2444050940787L420.75486016841904 292.2444050940787L424.3187001987185 256.77985064622055Q447.4691732410704 259.0977953813747 476.8780970683383 259.0977953813747Q506.28702089560625 259.0977953813747 529.8721085757995 256.77985064622055L529.8721085757995 256.77985064622055L533.0013339682575 292.2444050940787Q532.1610790017643 293.08466006057205 528.9159563725485 293.08466006057205Q525.6998080525221 293.08466006057205 525.0623732503547 292.2444050940787L525.0623732503547 292.2444050940787Q522.976222988716 280.3649383264138 518.4852050643549 275.14956267231696Q514.0231614491832 269.9341870182202 501.506259879351 269.9341870182202L501.506259879351 269.9341870182202L484.17962298407383 269.9341870182202L487.94628317869933 386.75860166998814Q488.1491033430252 392.3796176527369 491.1624314987256 394.9873054797853Q494.20473396361547 397.5949933068337 501.709080043677 397.5949933068337L501.709080043677 397.5949933068337Q502.75215517449635 398.63806843765303 502.75215517449635 401.76729383011116Q502.75215517449635 404.89651922256917 502.11472037232886 405.53395402473654L502.11472037232886 405.53395402473654Z " fill="#ff5d52" transform="matrix(0.8772833425121604,0,0,0.8772833425121607,-3.2792778293979765,9.290926884456297)"/><path d="M639.4686245358047 404.30524264913765L614.2387398470858 402.8684610609418L590.014602270104 404.30524264913765Q589.6123034254092 404.1040932267902 589.6123034254092 401.0006449962872Q589.6123034254092 397.8971967657842 591.049085013605 396.43167954582447L591.049085013605 396.43167954582447Q598.7214986945708 396.43167954582447 601.8249469250738 391.6903003047782L601.8249469250738 391.6903003047782Q604.2962112567707 388.3857026519278 608.2329928084273 378.4431740616126L608.2329928084273 378.4431740616126L655.1870151106672 258.8454746601912Q657.2559805976691 256.37421032849437 660.9916127269784 256.37421032849437L660.9916127269784 256.37421032849437Q661.6237966257845 256.37421032849437 663.2617276363278 256.7765091731892L663.2617276363278 256.7765091731892L712.0835660032222 378.4431740616126Q715.8191981325315 387.954668175469 720.474370478286 392.2075416765287Q725.1295428240404 396.43167954582447 734.0375886708547 396.43167954582447L734.0375886708547 396.43167954582447Q735.4743702590505 398.299495610479 735.4743702590505 401.08685189157893Q735.4743702590505 403.90294380444277 735.0720714143556 404.30524264913765L735.0720714143556 404.30524264913765L706.7100028633698 402.8684610609418L676.5088538794934 404.30524264913765Q676.1065550347985 404.1040932267902 676.1065550347985 401.0006449962872Q676.1065550347985 397.8971967657842 677.5433366229944 396.43167954582447L677.5433366229944 396.43167954582447Q693.2617271978568 396.43167954582447 693.2617271978568 386.7190360096206L693.2617271978568 386.7190360096206Q693.2617271978568 384.01788662381244 691.3939111332022 378.4431740616126L691.3939111332022 378.4431740616126L683.3479342393056 356.7190364480915L630.9916131654493 356.7190364480915L622.9169006397888 378.4431740616126Q620.6467857304392 384.24777167792377 620.6467857304392 387.7535187531216L620.6467857304392 387.7535187531216Q620.6467857304392 396.43167954582447 638.4341417923038 396.43167954582447L638.4341417923038 396.43167954582447Q639.8996590122634 398.299495610479 639.8996590122634 401.08685189157893Q639.8996590122634 403.90294380444277 639.4686245358047 404.30524264913765L639.4686245358047 404.30524264913765ZM678.9801182111902 345.13857684723314L657.6870150741279 280.7994973278236L635.3306935618007 345.13857684723314L678.9801182111902 345.13857684723314ZM786.5663235352944 304.9948992730414L810.3594266358174 306.23053143888984L829.2100010729469 304.9948992730414Q829.6122999176416 305.39719811773625 829.6122999176416 308.41443945294753Q829.6122999176416 311.4029451563949 828.5778171741407 312.43742789989585L828.5778171741407 312.43742789989585Q822.1697712907873 312.43742789989585 819.2674724826317 314.30524396455047Q816.3651736744761 316.17306002920503 814.4973576098215 321.34547374671007L814.4973576098215 321.34547374671007L783.261725882444 404.30524264913765Q782.4283925612904 405.1385759702912 776.6525305767432 405.1385759702912Q770.847932960432 405.1385759702912 770.2444846933897 404.30524264913765L770.2444846933897 404.30524264913765L735.4743702590505 321.34547374671007Q733.4054047720484 316.17306002920503 730.4168990686011 314.30524396455047Q727.3996577333899 312.43742789989585 719.9571291065355 312.43742789989585L719.9571291065355 312.43742789989585Q718.721496940687 311.20179573404744 718.721496940687 308.41443945294753Q718.721496940687 305.62708317184763 719.3249452077292 304.9948992730414L719.3249452077292 304.9948992730414L742.916898885905 306.23053143888984L767.744484729929 304.9948992730414Q768.5778180510825 305.62708317184763 768.5778180510825 308.2994969258919Q768.5778180510825 311.00064631170005 767.1410364628867 312.43742789989585L767.1410364628867 312.43742789989585Q753.8939102197211 312.43742789989585 753.8939102197211 317.6098416174009L753.8939102197211 317.6098416174009Q753.8939102197211 318.4431749385545 754.7272435408746 321.34547374671007L754.7272435408746 321.34547374671007L778.2904615872864 387.5523693307742L799.2100015114178 321.34547374671007Q799.81344977846 319.27650825970807 799.81344977846 318.04087609385965L799.81344977846 318.04087609385965Q799.81344977846 312.43742789989585 787.1985074341006 312.43742789989585L787.1985074341006 312.43742789989585Q785.9628752682521 311.20179573404744 785.9628752682521 308.41443945294753Q785.9628752682521 305.62708317184763 786.5663235352944 304.9948992730414L786.5663235352944 304.9948992730414ZM864.9858626190231 368.29949604895Q865.1870120413706 381.747771714463 868.0031039542345 387.63857622606594Q870.7904602353343 393.5581163694328 878.9513796562867 393.5581163694328Q887.141034709003 393.5581163694328 897.2559770899016 387.954668175469L897.2559770899016 387.954668175469Q898.0893104110552 388.7880014966226 899.3249425769037 391.058116405972Q900.589310374516 393.32823131532143 900.589310374516 394.161564636475Q900.589310374516 394.9948979576286 900.3594253204046 395.196047379976L900.3594253204046 395.196047379976Q888.3766668748514 406.3742081361396 872.4283912458776 406.3742081361396L872.4283912458776 406.3742081361396Q847.3996559795061 406.3742081361396 847.3996559795061 372.2362776006066L847.3996559795061 372.2362776006066Q847.3996559795061 371.2017948571056 848.4341387230071 317.81099103974833L848.4341387230071 317.81099103974833L835.4168975339529 317.81099103974833Q834.1525297363405 316.57535887389986 834.1525297363405 313.78800259279996Q834.1525297363405 311.00064631170005 834.7847136351467 310.3684624128939L834.7847136351467 310.3684624128939Q845.5318399148515 307.8971980811971 849.9858628382586 302.40869241428896Q854.4398857616657 296.92018674738085 856.3077018263203 287.207543211177L856.3077018263203 287.207543211177Q857.1410351474739 286.3742098900234 859.8134489015182 286.3742098900234Q862.5145982873263 286.3742098900234 863.7502304531747 287.207543211177L863.7502304531747 287.207543211177L864.1525292978696 307.06386476004343L895.6180460793584 307.06386476004343Q896.6525288228594 309.966163568199 896.6525288228594 313.06961179870206Q896.6525288228594 316.17306002920503 894.9858621805522 317.81099103974833L894.9858621805522 317.81099103974833L864.1525292978696 317.81099103974833L864.9858626190231 368.29949604895ZM923.4341376268297 391.77650720006994Q912.5720688200691 377.20754189576417 912.5720688200691 354.65007096108957Q912.5720688200691 332.0926000264149 923.4341376268297 317.52363472210914Q934.2962064335903 302.9259337860394 956.2214934694588 302.9259337860394Q978.1755161370912 302.9259337860394 989.6410332108939 317.6098416174009Q1001.1352859164606 332.29374944876236 1001.1352859164606 354.65007096108957Q1001.1352859164606 377.0063924734168 989.6410332108939 391.6903003047782Q978.1755161370912 406.3742081361396 956.2214934694588 406.3742081361396Q934.2962064335903 406.3742081361396 923.4341376268297 391.77650720006994ZM978.9801138264808 384.01788662381244L978.9801138264808 384.01788662381244Q983.5490792769435 374.506392509956 983.5490792769435 356.51788702574413Q983.5490792769435 338.5006459097683 976.3939069677283 325.6845541430615Q969.267470290277 312.8684623763546 955.8191946247639 312.8684623763546L955.8191946247639 312.8684623763546Q937.6008040864407 312.8684623763546 932.658275423047 329.1903012182593L932.658275423047 329.1903012182593Q930.1582754595862 337.8971976427261 930.1582754595862 350.9144388317804L930.1582754595862 350.9144388317804Q930.1582754595862 370.5696109582994 937.3134477688016 382.89719698501966Q944.4398844462529 395.196047379976 959.1237922776144 395.196047379976Q973.8077001089757 395.196047379976 978.9801138264808 384.01788662381244Z " fill="#292826" transform="matrix(0.8772833425121604,0,0,0.8772833425121607,-3.2792778293979765,9.290926884456297)"/></g></svg>